<?xml version="1.0" encoding="UTF-8"?>
<svg width="16px" height="16px" viewBox="0 0 16 16" version="1.1" xmlns="http://www.w3.org/2000/svg" xmlns:xlink="http://www.w3.org/1999/xlink">
    <title>data</title>
    <g id="GIS-小工具-/-坐标转换工具" stroke="none" stroke-width="1" fill="none" fill-rule="evenodd">
        <g id="B1-文件导入（已登录）" transform="translate(-833.000000, -765.000000)">
            <g id="表单区" transform="translate(264.000000, 217.000000)">
                <g id="导入文件组" transform="translate(64.000000, 414.000000)">
                    <g id="文件上传框" transform="translate(25.000000, 78.000000)">
                        <g id="我的数据" transform="translate(468.000000, 48.000000)">
                            <g id="data" transform="translate(12.000000, 8.000000)">
                                <rect id="矩形" fill="#000000" fill-rule="nonzero" opacity="0" x="0" y="0" width="16" height="16"></rect>
                                <path d="M5.171875,5.365625 L5.171875,6.165625 C5.171875,6.22078125 5.20125,6.265625 5.23765625,6.265625 L10.7623437,6.265625 C10.79875,6.265625 10.828125,6.22078125 10.828125,6.165625 L10.828125,5.365625 C10.828125,5.31046875 10.79875,5.265625 10.7623437,5.265625 L5.23765625,5.265625 C5.20125,5.265625 5.171875,5.31046875 5.171875,5.365625 Z M5.23765625,8.9609375 L10.7623437,8.9609375 C10.79875,8.9609375 10.828125,8.91609375 10.828125,8.8609375 L10.828125,8.0609375 C10.828125,8.00578125 10.79875,7.9609375 10.7623437,7.9609375 L5.23765625,7.9609375 C5.20125,7.9609375 5.171875,8.00578125 5.171875,8.0609375 L5.171875,8.8609375 C5.171875,8.91609375 5.20125,8.9609375 5.23765625,8.9609375 Z M10.7776562,10.65625 L5.22234375,10.65625 C5.1859375,10.65625 5.15625,10.7010938 5.15625,10.75625 L5.15625,11.55625 C5.15625,11.6114062 5.1859375,11.65625 5.22234375,11.65625 L10.7776562,11.65625 C10.8140625,11.65625 10.84375,11.6114062 10.84375,11.55625 L10.84375,10.75625 C10.84375,10.7010938 10.8140625,10.65625 10.7776562,10.65625 Z M13.33,4.05328125 L10.4959375,1.50640625 C10.3011025,1.33117269 10.0482948,1.23437491 9.78625,1.23437491 L3.38,1.23437491 C2.79125,1.23437491 2.3125,1.71734375 2.3125,2.31109375 L2.3125,13.6889062 C2.3125,14.2826562 2.79125,14.765625 3.37953125,14.765625 L12.6204688,14.765625 C13.20875,14.765625 13.6875002,14.2826562 13.6875002,13.6889062 L13.6875002,4.8575 C13.6876821,4.55087864 13.5577469,4.25858115 13.33,4.05328125 Z M12.5625,13.640625 L3.4375,13.640625 L3.4375,2.359375 L9.76140625,2.359375 L12.5625,4.87609375 L12.5625,13.640625 Z" id="形状" fill="#FFFFFF"></path>
                            </g>
                        </g>
                    </g>
                </g>
            </g>
        </g>
    </g>
</svg>