<?xml version="1.0" standalone="no"?><!DOCTYPE svg PUBLIC "-//W3C//DTD SVG 1.1//EN" "http://www.w3.org/Graphics/SVG/1.1/DTD/svg11.dtd"><svg t="1684940191328" class="icon" viewBox="0 0 1024 1024" version="1.1" xmlns="http://www.w3.org/2000/svg" p-id="2279" width="20" height="20" xmlns:xlink="http://www.w3.org/1999/xlink"><path d="M510.537143 0A510.756571 510.756571 0 0 0 0 510.537143a510.756571 510.756571 0 0 0 510.537143 510.537143 510.756571 510.756571 0 0 0 510.537143-510.537143C1021.074286 228.717714 792.868571 0 510.537143 0z m302.226286 467.675429c-24.502857 37.741714-61.732571 65.828571-105.179429 78.116571-1.462857 0-1.462857 0-3.584 1.462857-6.582857 1.536-13.238857 3.657143-21.430857 3.657143-31.670857 0-48.493714-21.942857-39.789714-47.030857 6.582857-18.358857 25.014857-35.181714 46.957714-41.837714 35.254857-13.312 58.221714-41.837714 58.221714-75.044572 0-44.909714-43.446857-81.700571-97.060571-81.700571-53.540571 0-96.987429 36.790857-96.987429 81.700571v248.685714c0 60.196571-35.181714 111.762286-86.747428 141.897143a189.44 189.44 0 0 1-97.060572 25.014857c-101.595429 0-183.222857-75.117714-183.222857-166.985142 0-30.134857 8.118857-56.685714 23.405714-81.700572 24.576-37.741714 61.805714-65.828571 105.252572-78.628571 8.118857-1.462857 14.774857-3.584 23.405714-3.584 31.670857 0 48.566857 21.504 39.862857 47.030857-6.582857 18.285714-23.405714 33.133714-43.373714 41.837714a12.214857 12.214857 0 0 0-6.582857 3.584c-31.744 13.238857-53.686857 40.301714-53.686857 73.508572 0 44.909714 43.373714 81.700571 96.987428 81.700571 53.613714 0 97.060571-36.790857 97.060572-81.700571v-248.685715c0-60.196571 35.181714-111.762286 86.747428-141.897143a189.44 189.44 0 0 1 96.987429-25.014857c101.668571 0 183.296 75.044571 183.296 166.985143a153.746286 153.746286 0 0 1-23.405715 78.628572z" fill="#6d6d72" p-id="2280" data-spm-anchor-id="a313x.7781069.0.i12" class="selected"></path></svg>